<svg width="82" height="69" viewBox="0 0 82 69" fill="none" xmlns="http://www.w3.org/2000/svg">
<path d="M8.6 0.5H73.4C77.5778 0.5 81 3.92806 81 8.11765V60.8824C81 65.0719 77.5778 68.5 73.4 68.5H63.775V66.655C65.0179 65.8903 65.8 64.3939 65.8 62.9118C65.8 60.4043 63.7547 58.3529 61.25 58.3529C58.7453 58.3529 56.7 60.4043 56.7 62.9118C56.7 64.3939 57.4821 65.8903 58.725 66.655V68.5H23.275V66.655C24.5179 65.8903 25.3 64.3939 25.3 62.9118C25.3 60.4043 23.2547 58.3529 20.75 58.3529C18.2453 58.3529 16.2 60.4043 16.2 62.9118C16.2 64.3939 16.9821 65.8903 18.225 66.655V68.5H8.6C4.42217 68.5 1 65.0719 1 60.8824V8.11765C1 3.92806 4.42217 0.5 8.6 0.5Z" fill="white" stroke="black"/>
<path d="M41.0882 30.4411C45.5715 30.4411 49.2058 26.8067 49.2058 22.3235C49.2058 17.8402 45.5715 14.2058 41.0882 14.2058C36.6049 14.2058 32.9706 17.8402 32.9706 22.3235C32.9706 26.8067 36.6049 30.4411 41.0882 30.4411Z" fill="#D23E3A"/>
<path d="M55.2941 42.6176C55.2941 42.6176 51.4382 34.5 41.0882 34.5C30.7382 34.5 26.8823 42.6176 26.8823 42.6176V46.6765H55.2941V42.6176Z" fill="#D23E3A"/>
</svg>
