<svg width="51" height="50" viewBox="0 0 51 50" fill="none" xmlns="http://www.w3.org/2000/svg">
<path d="M25.6312 16.5824C21.0629 16.5824 17.3348 20.3105 17.3348 24.8788C17.3348 29.4472 21.0629 33.1753 25.6312 33.1753C30.1996 33.1753 33.9277 29.4472 33.9277 24.8788C33.9277 20.3105 30.1996 16.5824 25.6312 16.5824ZM50.5145 24.8788C50.5145 21.4432 50.5456 18.0388 50.3526 14.6094C50.1597 10.6261 49.251 7.09089 46.3382 4.1781C43.4192 1.25908 39.8902 0.356614 35.9069 0.163673C32.4713 -0.0292684 29.0668 0.00185127 25.6375 0.00185127C22.2019 0.00185127 18.7974 -0.0292684 15.368 0.163673C11.3847 0.356614 7.84951 1.26531 4.93672 4.1781C2.0177 7.09712 1.11524 10.6261 0.922294 14.6094C0.729353 18.045 0.760472 21.4495 0.760472 24.8788C0.760472 28.3082 0.729353 31.7189 0.922294 35.1483C1.11524 39.1316 2.02393 42.6668 4.93672 45.5796C7.85574 48.4986 11.3847 49.4011 15.368 49.594C18.8036 49.787 22.2081 49.7558 25.6375 49.7558C29.0731 49.7558 32.4776 49.787 35.9069 49.594C39.8902 49.4011 43.4254 48.4924 46.3382 45.5796C49.2572 42.6606 50.1597 39.1316 50.3526 35.1483C50.5518 31.7189 50.5145 28.3145 50.5145 24.8788V24.8788ZM25.6312 37.6441C18.5671 37.6441 12.866 31.943 12.866 24.8788C12.866 17.8147 18.5671 12.1136 25.6312 12.1136C32.6954 12.1136 38.3965 17.8147 38.3965 24.8788C38.3965 31.943 32.6954 37.6441 25.6312 37.6441ZM38.9193 14.572C37.27 14.572 35.9381 13.2401 35.9381 11.5908C35.9381 9.94145 37.27 8.60953 38.9193 8.60953C40.5686 8.60953 41.9006 9.94145 41.9006 11.5908C41.9011 11.9824 41.8243 12.3703 41.6746 12.7322C41.525 13.0942 41.3054 13.423 41.0285 13.6999C40.7515 13.9769 40.4227 14.1965 40.0608 14.3461C39.6988 14.4958 39.311 14.5725 38.9193 14.572V14.572Z" fill="black"/>
</svg>
