<svg width="127" height="114" viewBox="0 0 127 114" fill="none" xmlns="http://www.w3.org/2000/svg">
<path d="M63.5 49.8929H72.5714V58.9643H63.5V49.8929ZM81.6429 49.8929H90.7143V58.9643H81.6429V49.8929ZM99.7857 49.8929H108.857V58.9643H99.7857V49.8929ZM63.5 68.0357H72.5714V77.1071H63.5V68.0357ZM81.6429 68.0357H90.7143V77.1071H81.6429V68.0357ZM99.7857 68.0357H108.857V77.1071H99.7857V68.0357ZM63.5 86.1786H72.5714V95.25H63.5V86.1786ZM81.6429 86.1786H90.7143V95.25H81.6429V86.1786ZM99.7857 86.1786H108.857V95.25H99.7857V86.1786ZM63.5 31.75H108.857V40.8214H63.5V31.75Z" fill="#B3404A"/>
<path d="M117.929 13.6071H54.4286V9.07143C54.4262 6.66627 53.4697 4.36032 51.769 2.65961C50.0683 0.95891 47.7623 0.00240156 45.3571 0H27.2143C24.8091 0.00240156 22.5032 0.95891 20.8025 2.65961C19.1018 4.36032 18.1453 6.66627 18.1429 9.07143V13.6071H9.07143C6.66627 13.6095 4.36031 14.5661 2.65961 16.2668C0.95891 17.9675 0.00240155 20.2734 0 22.6786V104.321C0.00240155 106.727 0.95891 109.033 2.65961 110.733C4.36031 112.434 6.66627 113.39 9.07143 113.393H117.929C120.334 113.39 122.64 112.434 124.34 110.733C126.041 109.033 126.998 106.727 127 104.321V22.6786C126.998 20.2734 126.041 17.9675 124.34 16.2668C122.64 14.5661 120.334 13.6095 117.929 13.6071ZM27.2143 9.07143H45.3571V47.625V86.1786H27.2143V9.07143ZM117.929 104.321H9.07143V22.6786H18.1429V86.1786C18.1453 88.5837 19.1018 90.8897 20.8025 92.5904C22.5032 94.2911 24.8091 95.2476 27.2143 95.25H45.3571C47.7623 95.2476 50.0683 94.2911 51.769 92.5904C53.4697 90.8897 54.4262 88.5837 54.4286 86.1786V22.6786H117.929V104.321Z" fill="#B3404A"/>
<path d="M27.2143 9.07143H45.3571V47.625V86.1786H27.2143V9.07143Z" fill="white"/>
<path d="M63.5 50H72.5V58.5H63.5V50Z" fill="#B3404A"/>
<path d="M82 50H91V58.5H82V50Z" fill="#B3404A"/>
<path d="M100 50H109V58.5H100V50Z" fill="#B3404A"/>
<path d="M63.5 68H72.5V76.5H63.5V68Z" fill="#B3404A"/>
<path d="M82 68H91V76.5H82V68Z" fill="#B3404A"/>
<path d="M100 68H109V76.5H100V68Z" fill="#B3404A"/>
<path d="M63.5 86H72.5V94.5H63.5V86Z" fill="#B3404A"/>
<path d="M82 86H91V94.5H82V86Z" fill="#B3404A"/>
<path d="M100 86H109V94.5H100V86Z" fill="#B3404A"/>
<path fill-rule="evenodd" clip-rule="evenodd" d="M117.929 104.321H9.07143V22.6786H18.1429V86.1786C18.1453 88.5837 19.1018 90.8897 20.8025 92.5904C22.5032 94.2911 24.8091 95.2476 27.2143 95.25H45.3571C47.7623 95.2476 50.0683 94.2911 51.769 92.5904C53.4697 90.8897 54.4262 88.5837 54.4286 86.1786V22.6786H117.929V104.321ZM63.5 40.5V32H109V40.5H63.5ZM72.5 50H63.5V58.5H72.5V50ZM91 50H82V58.5H91V50ZM109 50H100V58.5H109V50ZM72.5 68H63.5V76.5H72.5V68ZM91 68H82V76.5H91V68ZM109 68H100V76.5H109V68ZM72.5 86H63.5V94.5H72.5V86ZM91 86H82V94.5H91V86ZM109 86H100V94.5H109V86Z" fill="white"/>
</svg>
