<svg width="50" height="50" viewBox="0 0 50 50" fill="none" xmlns="http://www.w3.org/2000/svg">
<path d="M40.4982 2.14973L40.5001 2.15161L46.9597 8.60522C46.9601 8.60565 46.9606 8.60608 46.961 8.60651C48.5446 10.2016 49.269 12.4581 48.9094 14.643C47.5819 22.618 43.3485 30.5399 36.9383 36.9443C30.5206 43.3561 22.5924 47.5949 14.6431 48.9041L14.6431 48.904L14.6343 48.9056C14.2737 48.9683 13.9063 49 13.5192 49C11.6836 49 9.89434 48.261 8.60286 46.9642L8.60141 46.9628L2.15127 40.5126C1.40959 39.7709 1 38.787 1 37.7367L1 37.7355C0.999401 37.2202 1.10069 36.7099 1.29804 36.2339C1.49539 35.758 1.78491 35.3257 2.14993 34.9621L2.15065 34.9614L9.1105 28.0135L9.11112 28.0129C9.8528 27.2712 10.8366 26.8617 11.887 26.8617H11.8872C12.4016 26.8615 12.9109 26.963 13.3859 27.1603C13.8609 27.3576 14.2923 27.6469 14.6552 28.0114L14.6567 28.0129L19.7416 33.0979L20.2324 33.5887L20.8639 33.3005C23.5966 32.0534 26.0821 30.3237 28.2011 28.1945C30.3254 26.075 32.049 23.5889 33.2888 20.8561L33.5749 20.2255L33.0853 19.7359L28.0004 14.6509C27.2587 13.9092 26.8491 12.9254 26.8491 11.875V11.8748C26.849 11.3604 26.9505 10.851 27.1478 10.376C27.3451 9.90099 27.6343 9.46963 27.9988 9.10671L28.0004 9.10516L34.9542 2.15128C35.6959 1.40958 36.6797 1 37.73 1H37.7303C38.2446 0.999877 38.7539 1.10138 39.229 1.29869C39.704 1.49599 40.1353 1.78521 40.4982 2.14973Z" fill="#D23E3A" stroke="black" stroke-width="2"/>
</svg>
